<svg version="1.1" id="Layer_1" xmlns="http://www.w3.org/2000/svg" xmlns:xlink="http://www.w3.org/1999/xlink" x="0px" y="0px"
	 width="100%" viewBox="0 0 640 640" enable-background="new 0 0 640 640" xml:space="preserve">
<path fill="#000000" opacity="1.000000" stroke="none" 
	d="
M284.056610,350.902924 
	C289.838104,354.593658 295.283051,358.140076 300.808838,361.555664 
	C303.143646,362.998840 304.305634,364.778107 304.292755,367.641876 
	C304.189453,390.637115 304.202118,413.632812 304.150909,436.628357 
	C304.148041,437.911407 304.381042,439.317413 302.962067,440.617554 
	C299.677948,439.852234 296.985291,437.592834 294.097137,435.803741 
	C288.574890,432.382904 283.245209,428.644318 277.658386,425.336945 
	C274.133118,423.250000 272.551392,420.798615 272.804840,416.475159 
	C273.369232,406.845703 273.138428,397.170868 273.645691,387.536316 
	C273.892487,382.848755 272.565765,379.926392 268.337738,377.438110 
	C259.903534,372.474396 251.872940,366.824890 242.335815,360.581543 
	C242.335815,375.509033 242.335815,389.107391 242.335815,402.212921 
	C240.032623,403.295868 239.039230,402.497162 238.089996,401.911835 
	C230.149414,397.015289 222.252289,392.048218 214.303604,387.165039 
	C212.249023,385.902771 211.493927,384.333069 211.501297,381.836700 
	C211.608612,345.510742 211.590530,309.184387 211.634262,272.858185 
	C211.636414,271.073456 211.219604,269.194092 212.334351,267.457855 
	C214.742157,267.012054 216.389481,268.650970 218.159760,269.746338 
	C224.817734,273.866028 231.327133,278.231995 238.063690,282.215729 
	C241.198776,284.069672 242.340240,286.396637 242.280838,289.951782 
	C242.122192,299.447174 242.418030,308.951813 242.170578,318.443298 
	C242.067322,322.404449 243.347351,324.872864 246.727325,326.984283 
	C259.157928,334.749329 271.424500,342.776886 284.056610,350.902924 
z"/>
<path fill="#000000" opacity="1.000000" stroke="none" 
	d="
M335.269348,309.838074 
	C336.145569,315.280182 334.051392,318.569122 329.651184,320.783112 
	C324.858948,323.194336 321.340424,327.948090 314.871552,328.989197 
	C317.581604,319.529175 316.486755,310.430695 316.660309,301.389679 
	C316.696564,299.499725 317.223297,296.715546 314.441772,296.630463 
	C311.576477,296.542816 311.426514,299.323120 311.432831,301.481750 
	C311.451752,307.975922 311.589966,314.470367 311.746765,320.963135 
	C311.798279,323.096588 312.436920,325.256073 310.933319,327.890717 
	C304.221130,325.823547 298.935669,321.315613 293.663727,316.976654 
	C292.004730,315.611267 292.884918,312.840515 292.879822,310.707153 
	C292.823181,286.877136 292.702515,263.046173 292.878174,239.217529 
	C292.914246,234.325363 291.140717,233.024887 286.477875,232.966003 
	C279.196503,232.874039 272.076294,233.369308 264.807129,236.194199 
	C264.602448,232.721451 266.016113,230.799881 267.548523,228.842575 
	C282.030212,210.345718 296.539398,191.869659 310.876770,173.261322 
	C313.376678,170.016693 314.777191,170.223297 317.190613,173.300674 
	C331.479553,191.520599 345.930939,209.613098 360.305573,227.765930 
	C361.191772,228.885025 362.572571,229.854279 362.036407,231.644897 
	C360.657227,232.914841 358.749969,231.906860 357.288452,232.764038 
	C355.814880,237.993088 344.421722,238.826279 335.266785,233.532654 
	C335.266785,259.296234 335.266785,284.328766 335.269348,309.838074 
M320.765656,236.352036 
	C321.703033,234.993484 322.865509,233.737061 323.536865,232.257782 
	C325.830170,227.204758 324.300018,222.664322 319.552826,219.877960 
	C314.947144,217.174652 310.089966,218.120758 306.662598,222.388840 
	C303.393311,226.460114 303.176575,232.550629 307.364044,235.357773 
	C312.021210,238.479767 312.097137,242.474228 312.005310,247.009064 
	C311.944672,250.003738 311.695709,253.033264 312.033966,255.989639 
	C312.820068,262.860565 311.153839,268.430450 304.819427,272.073303 
	C303.704407,272.714539 302.834259,273.832092 301.959900,274.825531 
	C301.234375,275.649902 301.153748,276.680664 301.865356,277.565918 
	C302.574707,278.448395 303.556183,278.604126 304.546112,278.042847 
	C305.555450,277.470581 306.613007,276.923004 307.480255,276.169830 
	C315.309326,269.370758 314.513458,271.634399 320.833618,275.908905 
	C322.401855,276.969543 324.167572,280.016937 326.173096,277.443359 
	C327.891144,275.238708 325.054352,273.729523 323.666534,272.210907 
	C323.223877,271.726501 322.649323,271.352081 322.101898,270.975647 
	C318.244049,268.322937 316.352814,264.909637 316.709259,259.992676 
	C317.093292,254.695221 316.882660,249.344330 316.732330,244.022385 
	C316.645142,240.934860 317.414398,238.453354 320.765656,236.352036 
z"/>
<path fill="#000000" opacity="1.000000" stroke="none" 
	d="
M272.771118,330.824585 
	C273.138245,325.089600 272.410553,319.744415 273.745361,314.575317 
	C276.089874,313.834106 277.429810,315.312195 278.885162,316.255707 
	C289.081024,322.865692 299.368256,329.346161 309.361603,336.251129 
	C313.022522,338.780670 315.738037,338.504211 319.204224,336.144012 
	C329.110718,329.398499 339.183838,322.896942 349.223785,316.349091 
	C350.695892,315.389069 352.006165,313.908691 354.131622,314.204132 
	C355.770691,315.844208 355.203979,317.946960 355.207428,319.851410 
	C355.265747,352.154419 355.217468,384.457825 355.375916,416.760254 
	C355.394501,420.553589 354.198273,422.938599 351.003296,424.918030 
	C343.082001,429.825592 335.333282,435.011383 327.491638,440.048615 
	C326.841217,440.466370 326.012299,440.606262 324.447357,441.170593 
	C324.447357,418.724854 324.447357,396.776733 324.447357,374.425690 
	C318.518280,376.309296 315.121490,381.639618 308.938232,381.817474 
	C308.822540,379.248352 310.596741,377.493134 310.726654,375.172302 
	C311.458344,362.101807 311.593292,362.055878 300.562317,354.893402 
	C293.164032,350.089661 285.767578,345.262695 278.146881,340.830322 
	C274.256683,338.567657 271.960327,335.953522 272.771118,330.824585 
z"/>
<path fill="#000000" opacity="1.000000" stroke="none" 
	d="
M385.972046,319.580566 
	C385.985901,309.635803 386.121124,300.138428 385.943665,290.646881 
	C385.866852,286.538849 387.250061,283.866974 390.877808,281.714447 
	C398.033203,277.468781 404.907867,272.750702 411.912750,268.249939 
	C413.124512,267.471344 414.181763,266.241058 415.872314,266.555298 
	C417.687195,268.205811 417.077301,270.335815 417.080688,272.236023 
	C417.144470,308.051086 417.103699,343.866486 417.254517,379.681122 
	C417.271210,383.638245 416.152679,386.281982 412.624939,388.185394 
	C402.414246,393.694641 393.494049,401.448639 382.592743,405.766052 
	C379.465668,400.439484 380.612640,391.748627 384.806946,388.214569 
	C385.523621,387.610687 385.806671,386.882111 385.808960,386.047821 
	C385.830536,378.141693 385.821808,370.235474 385.821808,361.190613 
	C377.087799,366.703857 369.325562,371.603699 361.818817,376.342255 
	C359.512054,374.684479 359.922821,372.890320 359.931671,371.298340 
	C359.983307,361.982208 360.143829,352.666565 360.184937,343.350433 
	C360.196198,340.801178 361.686462,339.519073 363.617279,338.299286 
	C369.953186,334.296600 376.198334,330.149994 382.543915,326.163055 
	C384.880127,324.695221 386.214844,322.851227 385.972046,319.580566 
z"/>
<path fill="#000000" opacity="1.000000" stroke="none" 
	d="
M253.161758,242.676086 
	C251.936295,245.927399 252.855820,248.062637 255.044891,250.132004 
	C261.689301,256.413086 268.099182,262.944000 274.795837,269.167297 
	C277.306732,271.500671 278.544983,273.914459 278.450958,277.398682 
	C278.249115,284.877380 278.428162,292.365784 278.384674,299.849854 
	C278.375397,301.447571 278.815094,303.176910 277.382111,304.822083 
	C273.487976,304.020966 270.930908,302.224609 271.043304,297.610565 
	C271.180939,291.960114 270.830780,286.294800 271.057556,280.650604 
	C271.204285,276.998657 269.951233,274.324554 267.368988,271.863159 
	C261.712433,266.471252 256.148529,260.976440 250.702286,255.372482 
	C248.681473,253.293152 246.866165,252.384628 243.745193,252.989868 
	C237.823868,254.138168 233.362595,251.761963 231.210022,247.193756 
	C229.178635,242.882706 230.160782,237.121964 233.497040,233.779236 
	C236.890671,230.379028 242.693069,229.574677 247.415649,231.994400 
	C251.566223,234.121063 253.096161,237.823074 253.161758,242.676086 
M239.988464,246.146957 
	C242.951050,246.712936 244.954117,245.463608 245.541977,242.613464 
	C245.999908,240.393188 244.626389,238.825531 242.591614,237.969269 
	C240.749725,237.194183 239.275818,237.966217 238.285934,239.463364 
	C236.708038,241.849899 236.608551,244.130569 239.988464,246.146957 
z"/>
<path fill="#000000" opacity="1.000000" stroke="none" 
	d="
M357.163513,285.068481 
	C357.168182,289.213745 356.966431,292.886597 357.225616,296.526611 
	C357.557739,301.190796 355.418243,303.651215 351.119446,304.605560 
	C349.295380,303.653442 349.767456,301.983643 349.758850,300.585999 
	C349.709534,292.604675 349.805603,284.622101 349.712280,276.641571 
	C349.680603,273.933716 350.618317,271.919678 352.567108,270.064545 
	C358.586945,264.334137 364.381714,258.364716 370.469421,252.709320 
	C373.903290,249.519302 376.209808,246.356628 375.731842,241.186264 
	C375.265869,236.145386 378.565674,232.822754 383.176025,231.127228 
	C387.533752,229.524567 393.071686,231.279556 395.775787,234.835205 
	C398.769775,238.772034 399.120514,243.879105 396.461945,247.904343 
	C393.585449,252.259460 389.336212,253.939789 384.358856,252.797852 
	C381.465607,252.134064 379.667877,252.991119 377.781006,254.946945 
	C373.163879,259.732941 368.679077,264.703064 363.632904,269.002716 
	C358.652771,273.246094 356.084290,278.040375 357.163513,285.068481 
M382.437836,241.730515 
	C383.089233,245.926178 385.403503,246.590729 389.038177,245.008255 
	C388.539856,242.428497 388.092682,240.113464 387.643707,237.789062 
	C384.846039,237.474533 383.547607,239.026581 382.437836,241.730515 
z"/>
<path fill="#000000" opacity="1.000000" stroke="none" 
	d="
M316.302368,233.651642 
	C314.438599,234.342896 312.999329,234.080338 311.699921,233.238007 
	C308.789520,231.351349 307.771362,228.695877 309.453278,225.607315 
	C311.094788,222.592926 313.852814,222.260742 316.670380,223.882019 
	C319.729523,225.642319 320.445099,228.328110 318.747009,231.446167 
	C318.301788,232.263733 317.362396,232.812180 316.302368,233.651642 
z"/>
</svg>